<?xml version="1.0" encoding="utf-8"?>
<?xml-stylesheet type="text/xsl" href="rss1.xsl"?>
<rss version="2.0" xmlns:atom="http://www.w3.org/2005/Atom" xmlns:content="http://purl.org/rss/1.0/modules/content/" xmlns:dc="http://purl.org/dc/elements/1.1/" xmlns:media="http://search.yahoo.com/mrss/">
<channel>
 <title>Getty</title>
 <link>http://www.gettyimg.com/</link>
 <atom:link href="http://www.gettyimg.com/" rel="self" type="application/rss+xml" />

 
                <item>
                <title><![CDATA[【Documentaries】WEB-DL - Carlos Rivera Mi Musica , Mi Tierra Disney+.WEB-DL.720p-Tknobi]]></title>
                <link><![CDATA[https://sharemania.us/threads/carlos-rivera-mi-musica-mi-tierra-disney-web-dl-720p-tknobi.227573/]]></link>
                <description><![CDATA[<article>
<blockquote class="messageText SelectQuoteContainer ugc baseHtml">
<div style="text-align: center"><img src="https://i.postimg.cc/bwQ9QhpV/disney-Mi-m-sica-mi-tierra-Carlos-Rivera-mp4.jpg" class="bbCodeImage LbImage" alt="[​IMG]" data-url="https://i.postimg.cc/bwQ9QhpV/disney-Mi-m-sica-mi-tierra-Carlos-Rivera-mp4.jpg" style=""> <br>
​</div>
<div class="ToggleTriggerAnchor bbCodeSpoilerContainer">
<button type="button" class="button bbCodeSpoilerButton ToggleTrigger Tooltip JsOnly" data-target="> .SpoilerTarget"><span>Spoiler: <span class="SpoilerTitle">MediaInfo</span></span></button>
<div class="SpoilerTarget bbCodeSpoilerText">Format : MPEG-4<br>
Format profile : Base Media / Version 2<br>
Codec ID : mp42 (mp42/iso6)<br>
File size : 864 MiB<br>
Duration : 32 min 48 s<br>
Overall bit rate mode : Variable<br>
Overall bit rate : 3 681 kb/s<br>
Movie name : Mi música, mi tierra: Carlos Rivera<br>
Encoded date : UTC 2023-09-02 19:40:12<br>
Tagged date : UTC 2023-09-02 19:40:12<br>
Comment : Carlos Rivera regresa a Huamantla, México, el pueblo de ensueño en el que creció y donde nació su vocación artística. Fueron años en los que su abuela fue su sostén para seguir adelante. Mientras recorre Huamantla, recuerda que no fue un camino fácil, y que él mismo debió organizar sus recitales, financiados por los pequeños comercios del lugar. El agradecimiento es eterno, por eso dará un show para los habitantes de la ciudad que lo ayudó en su carrera artística, que lo vio caer y que estuvo siempre ahí para levantarlo.<br>
<br>
Video<br>
ID : 1<br>
Format : AVC<br>
Format/Info : Advanced Video Codec<br>
Format profile : High@L3.1<br>
Format settings : CABAC / 4 Ref Frames<br>
Format settings, CABAC : Yes<br>
Format settings, Reference frames : 4 frames<br>
Codec ID : avc1<br>
Codec ID/Info : Advanced Video Coding<br>
Duration : 32 min 48 s<br>
Bit rate mode : Variable<br>
Bit rate : 3 295 kb/s<br>
Maximum bit rate : 6 375 kb/s<br>
Width : 1 280 pixels<br>
Height : 720 pixels<br>
Display aspect ratio : 16:9<br>
Frame rate mode : Constant<br>
Frame rate : 23.976 (24000/1001) FPS<br>
Color space : YUV<br>
Chroma subsampling : 4:2:0<br>
Bit depth : 8 bits<br>
Scan type : Progressive<br>
Bits/(Pixel*Frame) : 0.149<br>
Stream size : 773 MiB (90%)<br>
Encoded date : UTC 2023-09-02 19:40:12<br>
Tagged date : UTC 2023-09-02 19:40:12<br>
Color range : Limited<br>
Color primaries : BT.709<br>
Transfer characteristics : BT.709<br>
Matrix coefficients : BT.709<br>
Codec configuration box : avcC<br>
<br>
Audio #1<br>
ID : 2<br>
Format : AAC LC<br>
Format/Info : Advanced Audio Codec Low Complexity<br>
Codec ID : mp4a-40-2<br>
Duration : 32 min 48 s<br>
Bit rate mode : Constant<br>
Bit rate : 128 kb/s<br>
Channel(s) : 2 channels<br>
Channel layout : L R<br>
Sampling rate : 48.0 kHz<br>
Frame rate : 46.875 FPS (1024 SPF)<br>
Compression mode : Lossy<br>
Stream size : 29.4 MiB (3%)<br>
Language : Spanish<br>
Default : Yes<br>
Alternate group : 1<br>
Encoded date : UTC 2023-09-02 19:40:12<br>
Tagged date : UTC 2023-09-02 19:40:12<br>
<br>
Audio #2<br>
ID : 3<br>
Format : E-AC-3<br>
Format/Info : Enhanced AC-3<br>
Commercial name : Dolby Digital Plus<br>
Codec ID : ec-3<br>
Duration : 32 min 48 s<br>
Bit rate mode : Constant<br>
Bit rate : 256 kb/s<br>
Channel(s) : 6 channels<br>
Channel layout : L R C LFE Ls Rs<br>
Sampling rate : 48.0 kHz<br>
Frame rate : 31.250 FPS (1536 SPF)<br>
Compression mode : Lossy<br>
Stream size : 60.1 MiB (7%)<br>
Language : Spanish<br>
Service kind : Complete Main<br>
Default : Yes<br>
Alternate group : 1<br>
Encoded date : UTC 2023-09-02 19:40:12<br>
Tagged date : UTC 2023-09-02 19:40:12<br>
<br>
Text<br>
ID : 4<br>
Format : Timed Text<br>
Muxing mode : sbtl<br>
Codec ID : tx3g<br>
Duration : 32 min 32 s<br>
Bit rate mode : Variable<br>
Bit rate : 85 b/s<br>
Stream size : 20.2 KiB (0%)<br>
Title : Español (Latinoamericano) / Español (Latinoamericano)<br>
Language : Spanish<br>
Default : Yes<br>
Forced : No<br>
Alternate group : 2<br>
Encoded date : UTC 2023-09-02 19:40:12<br>
Tagged date : UTC 2023-09-02 19:40:12</div>
</div><br>
<div style="text-align: center">
<div class="bbCodeBlock bbCodeVfcHH HiddenContent">
<div class="attribution type">Hidden Content:</div>
<blockquote>You must reply before you can see the hidden data contained here.</blockquote>
</div></div>
<div class="messageTextEndMarker">&nbsp;</div>
</blockquote>
</article>]]></description>
                <author><![CDATA[tknobi]]></author>
                </item>

                
                <item>
                <title><![CDATA[【HD Live Performances】HDTV - The Town 2023 - Primário: Mc Hariel, Mc Ryan Sp e Mc Cabelinho - HDTV 1080P MP2 H264-chmt]]></title>
                <link><![CDATA[https://sharemania.us/threads/the-town-2023-prim%C3%A1rio-mc-hariel-mc-ryan-sp-e-mc-cabelinho-hdtv-1080p-mp2-h264-chmt.227574/]]></link>
                <description><![CDATA[<article>
<blockquote class="messageText SelectQuoteContainer ugc baseHtml">
<img src="https://i.imgur.com/0gvrEqx.jpg" class="bbCodeImage LbImage" alt="[​IMG]" data-url="https://i.imgur.com/0gvrEqx.jpg" style=""><br>
<div class="ToggleTriggerAnchor bbCodeSpoilerContainer">
<button type="button" class="button bbCodeSpoilerButton ToggleTrigger Tooltip JsOnly" data-target="> .SpoilerTarget"><span>Spoiler: <span class="SpoilerTitle">MediaInfo</span></span></button>
<div class="SpoilerTarget bbCodeSpoilerText">General<br>
ID : 57 (0x39)<br>
Complete name : F:\PVR\Multishow HD-The Town 2023 - Primário_ Mc Hariel_ Mc Ryan Sp e Mc Cabelinho - Ao Vivo(20230902_154554)\Multishow HD-The Town 2023 - Primário_ Mc Hariel_ Mc Ryan Sp e Mc Cabelinho - Ao Vivo(20230902_154554).TS<br>
Format : MPEG-TS<br>
File size : 2.61 GiB<br>
Duration : 1 h 1 min<br>
Overall bit rate mode : Variable<br>
Overall bit rate : 6 037 kb/s<br>
<br>
Video<br>
ID : 4393 (0x1129)<br>
Menu ID : 542 (0x21E)<br>
Format : AVC<br>
Format/Info : Advanced Video Codec<br>
Codec ID : 27<br>
Encryption : Encrypted<br>
<br>
Audio #1<br>
ID : 4391 (0x1127)<br>
Menu ID : 542 (0x21E)<br>
Format : MPEG Audio<br>
Codec ID : 4<br>
Compression mode : Lossy<br>
Language : Portuguese<br>
Encryption : Encrypted<br>
<br>
Audio #2<br>
ID : 4392 (0x1128)<br>
Menu ID : 542 (0x21E)<br>
Format : MPEG Audio<br>
Codec ID : 4<br>
Compression mode : Lossy<br>
Language : English<br>
Encryption : Encrypted<br>
<br>
Menu<br>
ID : 4390 (0x1126)<br>
Menu ID : 542 (0x21E)<br>
Duration : 1 h 1 min<br>
List : 4393 (0x1129) (AVC) / 4391 (0x1127) (MPEG Audio, Portuguese) / 4392 (0x1128) (MPEG Audio, English) / 4394 (0x112A) (DVB Subtitle)<br>
Language : / Portuguese / English</div>
</div><br>
Link:<br>
<div class="bbCodeBlock bbCodeVfcHH HiddenContent">
<div class="attribution type">Hidden Content:</div>
<blockquote>You must reply before you can see the hidden data contained here.</blockquote>
</div>
<div class="messageTextEndMarker">&nbsp;</div>
</blockquote>
</article>]]></description>
                <author><![CDATA[chmt]]></author>
                </item>

                </channel></rss>